<svg xmlns="http://www.w3.org/2000/svg" width="20.479" height="19.978" viewBox="0 0 20.479 19.978">
  <g id="icon-booking-grey" transform="translate(193.769 -1024.232)">
    <path id="Path_59" data-name="Path 59" d="M-177.178,1026.547h2.541a.862.862,0,0,1,.847.871V1043.1a.862.862,0,0,1-.847.871h-17.785a.862.862,0,0,1-.847-.871v-15.679a.862.862,0,0,1,.847-.871h15.244Z" transform="translate(0 -0.258)" fill="none" stroke="#6e6e6e" stroke-linecap="round" stroke-linejoin="round" stroke-width="1"/>
    <line id="Line_40" data-name="Line 40" y2="4" transform="translate(-187.868 1024.732)" fill="none" stroke="#6e6e6e" stroke-linecap="round" stroke-linejoin="round" stroke-width="1"/>
    <line id="Line_41" data-name="Line 41" y2="4" transform="translate(-179.868 1024.732)" fill="none" stroke="#6e6e6e" stroke-linecap="round" stroke-linejoin="round" stroke-width="1"/>
    <line id="Line_42" data-name="Line 42" x2="19" transform="translate(-192.868 1030.732)" fill="none" stroke="#6e6e6e" stroke-linecap="round" stroke-linejoin="round" stroke-width="1"/>
    <line id="Line_43" data-name="Line 43" x2="0.871" transform="translate(-181.623 1040.185)" fill="none" stroke="#6e6e6e" stroke-linecap="round" stroke-linejoin="round" stroke-width="1"/>
    <line id="Line_44" data-name="Line 44" x2="0.871" transform="translate(-177.475 1036.701)" fill="none" stroke="#6e6e6e" stroke-linecap="round" stroke-linejoin="round" stroke-width="1"/>
    <line id="Line_45" data-name="Line 45" x2="0.871" transform="translate(-190.081 1036.701)" fill="none" stroke="#6e6e6e" stroke-linecap="round" stroke-linejoin="round" stroke-width="1"/>
    <line id="Line_46" data-name="Line 46" x2="0.871" transform="translate(-185.852 1036.701)" fill="none" stroke="#6e6e6e" stroke-linecap="round" stroke-linejoin="round" stroke-width="1"/>
    <line id="Line_47" data-name="Line 47" x2="0.871" transform="translate(-181.623 1036.701)" fill="none" stroke="#6e6e6e" stroke-linecap="round" stroke-linejoin="round" stroke-width="1"/>
    <line id="Line_48" data-name="Line 48" x2="0.871" transform="translate(-177.475 1033.217)" fill="none" stroke="#6e6e6e" stroke-linecap="round" stroke-linejoin="round" stroke-width="1"/>
    <line id="Line_49" data-name="Line 49" x2="0.871" transform="translate(-181.623 1033.217)" fill="none" stroke="#6e6e6e" stroke-linecap="round" stroke-linejoin="round" stroke-width="1"/>
    <line id="Line_50" data-name="Line 50" x2="0.871" transform="translate(-190.081 1040.185)" fill="none" stroke="#6e6e6e" stroke-linecap="round" stroke-linejoin="round" stroke-width="1"/>
    <line id="Line_51" data-name="Line 51" x2="0.871" transform="translate(-185.852 1040.185)" fill="none" stroke="#6e6e6e" stroke-linecap="round" stroke-linejoin="round" stroke-width="1"/>
  </g>
</svg>
